<?xml version="1.0" standalone="no"?>
<!DOCTYPE svg PUBLIC "-//W3C//DTD SVG 20010904//EN"
 "http://www.w3.org/TR/2001/REC-SVG-20010904/DTD/svg10.dtd">
<svg version="1.0" xmlns="http://www.w3.org/2000/svg"
 width="160.000000pt" height="160.000000pt" viewBox="0 0 160.000000 160.000000"
 preserveAspectRatio="xMidYMid meet">
<metadata>
Created by potrace 1.10, written by Peter Selinger 2001-2011
</metadata>
<g transform="translate(0.000000,160.000000) scale(0.100000,-0.100000)"
fill="#ff7300" stroke="none">
<path d="M966 1582 c-3 -3 -59 -5 -123 -4 -80 0 -129 -4 -152 -14 -18 -8 -48
-14 -65 -14 -53 0 -204 -81 -275 -148 -36 -34 -70 -58 -78 -55 -22 9 -62 -6
-73 -27 -8 -15 -8 -30 1 -55 12 -31 10 -37 -14 -72 -15 -21 -30 -53 -33 -71
-4 -17 -10 -32 -15 -32 -15 0 -49 -44 -49 -64 0 -11 7 -27 14 -35 12 -13 13
-26 6 -56 -14 -63 6 -230 35 -291 14 -28 25 -56 25 -63 0 -18 37 -86 55 -101
14 -11 65 -104 65 -117 0 -2 -15 -3 -32 -3 -60 0 -178 -42 -214 -75 -28 -27
-34 -40 -34 -73 0 -76 78 -132 235 -168 70 -16 124 -18 430 -18 442 0 653 22
672 70 7 20 -14 94 -28 94 -6 0 -8 4 -5 9 3 5 -1 14 -10 21 -12 11 -29 6 -98
-29 -110 -57 -175 -65 -561 -65 -293 1 -314 2 -390 23 -90 26 -135 47 -135 62
0 16 100 56 160 62 30 3 71 9 90 13 31 5 40 2 68 -27 28 -29 40 -34 84 -35 36
-1 53 -6 60 -18 6 -11 22 -17 46 -16 20 0 66 -4 101 -9 93 -13 289 9 329 38
17 11 38 21 49 21 24 0 68 28 122 79 25 23 51 39 58 37 7 -3 26 0 43 6 34 11
52 43 44 75 -3 12 5 36 20 58 14 21 26 43 26 50 0 7 11 37 25 67 14 29 25 62
25 74 0 11 11 35 25 54 28 38 32 76 11 99 -12 13 -13 26 -6 56 5 22 10 73 10
114 0 81 -18 124 -65 155 -14 9 -25 23 -25 30 0 7 -7 19 -15 26 -8 7 -15 22
-15 34 0 31 -34 78 -70 96 -17 9 -41 34 -53 56 -19 33 -28 39 -60 42 -29 3
-37 7 -37 23 0 34 -38 62 -77 56 -28 -5 -38 -1 -59 23 -25 27 -58 43 -68 32z
m-201 -33 c11 -18 -4 -57 -36 -94 -33 -38 -23 -50 11 -13 l20 22 0 -25 c1 -21
3 -20 16 11 30 66 34 81 24 75 -6 -3 -10 0 -10 9 0 33 26 20 47 -23 26 -53 30
-123 9 -172 l-14 -34 -25 55 c-15 31 -26 46 -26 35 0 -11 6 -31 14 -45 25 -44
13 -170 -16 -170 -5 0 -18 23 -31 52 -12 28 -23 47 -25 41 -2 -6 6 -32 17 -57
25 -52 28 -97 11 -141 l-13 -30 -24 28 c-14 17 -24 22 -24 14 0 -8 15 -26 33
-40 l33 -25 22 67 c13 36 31 89 41 116 10 28 24 70 32 95 7 25 16 49 21 55 4
5 8 20 8 35 1 14 7 36 15 50 19 33 20 61 1 35 -13 -18 -14 -17 -30 13 -25 49
-21 62 19 62 19 0 35 -5 35 -11 0 -8 6 -7 16 2 15 12 22 8 56 -30 34 -39 37
-41 28 -16 -6 15 -8 30 -5 33 3 3 5 1 5 -5 0 -6 9 -13 20 -16 12 -3 20 -14 20
-27 0 -28 -28 -82 -40 -75 -15 9 -22 -15 -9 -31 10 -12 9 -17 -8 -29 -22 -15
-38 -55 -22 -55 5 0 9 -7 9 -16 0 -10 -6 -14 -15 -10 -10 4 -15 -1 -15 -14 0
-18 3 -19 21 -8 17 11 22 10 29 -2 5 -8 16 -24 25 -35 15 -19 15 -18 1 12 -9
17 -20 35 -26 38 -16 10 -12 44 9 84 11 20 22 47 25 61 12 53 22 57 57 25 26
-24 29 -26 20 -8 -6 12 -21 29 -33 37 -21 15 -21 17 -5 33 21 21 45 10 64 -28
11 -24 7 -83 -6 -75 -3 3 -6 -13 -6 -34 0 -32 1 -35 12 -21 10 13 12 4 13 -51
0 -37 5 -70 10 -73 10 -6 4 180 -6 197 -9 14 27 21 51 10 13 -6 33 -29 44 -50
14 -28 28 -41 49 -45 21 -4 34 -16 46 -40 9 -19 16 -40 16 -46 0 -17 -79 42
-80 60 0 16 -75 57 -85 47 -3 -3 8 -11 24 -18 20 -8 35 -24 42 -45 8 -21 17
-31 26 -28 19 7 83 -66 84 -96 0 -15 3 -20 6 -13 7 19 27 14 57 -13 30 -28 33
-37 9 -28 -17 6 -17 5 0 -15 12 -13 21 -43 24 -84 l6 -63 -32 29 c-17 17 -31
38 -31 48 0 11 -5 16 -10 13 -6 -4 -8 -11 -4 -16 3 -6 0 -23 -6 -40 -14 -33
-53 -40 -68 -13 -7 13 -11 14 -17 4 -9 -14 11 -30 38 -30 9 0 17 -6 17 -14 0
-12 -5 -12 -31 1 -20 10 -34 12 -41 5 -13 -13 -1 -19 46 -23 36 -4 40 -2 49
26 17 53 28 59 48 28 10 -15 21 -45 25 -67 3 -23 11 -50 17 -60 8 -16 5 -24
-18 -43 -24 -21 -34 -23 -84 -19 l-56 6 40 -13 c37 -12 40 -16 38 -47 l-1 -34
19 24 c17 23 19 23 19 5 0 -35 -12 -65 -25 -65 -7 0 -21 -23 -31 -51 -23 -62
-36 -75 -57 -54 -29 28 -31 15 -3 -14 33 -34 29 -61 -9 -61 -14 0 -25 -4 -25
-10 0 -5 11 -10 25 -10 18 0 25 -5 25 -20 0 -11 -7 -23 -15 -26 -20 -8 -66 23
-72 47 -3 10 -8 19 -12 19 -17 0 -92 74 -87 86 3 7 -4 16 -17 19 -37 11 -98
58 -93 70 2 7 -13 20 -35 31 -22 9 -52 31 -67 48 -15 17 -55 52 -89 78 -34 27
-63 51 -65 56 -1 4 -27 25 -55 46 -29 21 -53 42 -53 47 0 5 23 9 51 9 34 0 48
3 43 11 -4 8 -25 9 -61 5 -46 -5 -61 -3 -89 15 -19 11 -39 29 -44 39 -9 17 -5
20 27 25 55 9 62 13 26 14 -17 1 -43 -3 -57 -8 -20 -8 -33 -4 -81 30 -31 21
-58 39 -61 39 -8 0 -158 101 -182 123 -26 24 -29 62 -6 71 9 3 28 6 43 6 19 0
32 8 41 24 16 31 42 43 39 18 -1 -9 3 -28 9 -42 10 -23 11 -21 11 22 1 39 6
50 33 73 28 23 32 25 40 10 23 -40 -14 -121 -62 -138 -12 -4 -11 -6 4 -13 12
-5 21 -3 23 3 6 17 42 57 47 52 3 -2 7 -28 9 -58 3 -38 9 -57 22 -64 20 -11
40 9 75 75 11 20 39 53 64 73 41 33 44 39 39 73 -7 54 9 105 38 119 30 16 36
16 44 2z m-160 -49 c-10 -11 -14 -20 -8 -20 5 0 18 9 28 20 35 38 48 26 43
-41 -4 -53 -9 -64 -41 -97 l-37 -37 0 47 c0 26 -4 50 -10 53 -6 4 -10 -17 -10
-56 0 -49 -5 -70 -22 -96 -27 -38 -43 -42 -52 -10 -15 57 -7 98 30 143 20 24
40 42 44 39 11 -7 20 22 13 41 -4 10 1 22 12 30 26 19 32 8 10 -16z m-55 -41
c-15 -30 -51 -69 -62 -69 -4 0 -8 15 -8 34 0 27 6 38 32 55 38 23 55 14 38
-20z m-265 -266 c32 -25 34 -30 28 -70 -4 -30 -2 -43 6 -43 7 0 11 6 9 13 -3
16 11 57 20 57 18 0 51 -32 54 -52 2 -19 11 -24 51 -30 56 -8 64 -13 49 -30
-8 -10 -3 -13 19 -14 19 -1 42 -13 63 -33 17 -17 36 -31 42 -31 15 0 75 -65
68 -73 -4 -4 -2 -7 4 -7 7 0 28 -10 47 -22 37 -24 43 -46 25 -93 -6 -15 -7
-38 -3 -53 6 -23 8 -19 14 27 10 75 21 82 63 42 l35 -34 -32 -60 c-18 -33 -45
-85 -60 -116 -16 -31 -36 -64 -45 -74 -16 -18 -16 -18 -23 0 -3 10 -6 -4 -5
-30 1 -47 1 -47 13 -20 6 15 27 43 46 62 20 18 33 39 31 45 -8 20 14 66 31 66
27 0 29 -29 5 -56 -13 -13 -19 -24 -13 -24 5 0 20 11 32 24 19 20 21 28 12 45
-7 12 -16 21 -21 21 -5 0 -7 7 -3 16 4 11 13 14 32 9 21 -5 24 -4 14 6 -16 16
-17 69 -3 69 6 0 28 -18 50 -40 22 -22 43 -40 47 -40 12 0 63 -53 63 -66 0 -6
6 -12 13 -11 6 0 27 -6 45 -14 24 -10 32 -19 28 -31 -3 -12 2 -18 14 -18 10 0
28 -13 40 -30 12 -17 27 -30 34 -30 7 0 19 -12 27 -27 7 -16 15 -31 17 -34 1
-4 -4 -9 -13 -13 -13 -4 -15 -1 -10 14 11 33 -3 22 -24 -19 -22 -42 -74 -91
-97 -91 -12 0 -12 4 -4 20 7 14 8 20 0 20 -6 0 -15 -10 -21 -23 -9 -21 -85
-77 -104 -77 -4 0 -5 9 -2 20 5 18 4 18 -21 2 -30 -20 -52 -24 -52 -10 0 6 -7
8 -15 4 -17 -6 -13 22 11 83 16 39 17 44 5 37 -4 -3 -16 -32 -25 -65 -14 -51
-21 -61 -48 -70 -37 -13 -68 -14 -68 -2 0 5 7 25 16 46 20 50 2 37 -21 -15
-17 -38 -21 -41 -54 -38 -32 3 -36 6 -33 27 l2 25 -23 -22 c-23 -22 -57 -30
-57 -14 0 5 9 17 20 27 11 10 17 22 14 27 -3 5 9 22 26 38 22 21 27 30 16 30
-8 0 -31 -25 -51 -56 -30 -46 -38 -54 -50 -44 -8 7 -15 29 -15 48 0 35 0 36
-15 15 -8 -12 -13 -27 -12 -35 2 -7 2 -10 0 -6 -3 5 -13 3 -24 -3 -26 -13 -56
-3 -64 22 -9 27 -45 45 -56 28 -6 -10 -10 -10 -23 0 -9 7 -26 11 -38 8 -13 -3
-34 -8 -48 -11 -66 -15 -88 -17 -94 -7 -6 10 33 17 71 12 6 -1 14 3 18 8 3 6
13 7 23 4 14 -6 15 -4 4 9 -15 19 -6 48 16 48 13 0 11 4 -6 15 -20 15 -72 93
-72 109 0 4 9 2 21 -4 11 -7 23 -9 26 -7 2 3 -4 8 -14 11 -11 4 -29 24 -41 45
-12 21 -29 45 -38 52 -22 18 -53 87 -54 118 0 21 2 22 17 10 15 -13 15 -12 6
6 -6 11 -14 39 -18 62 -4 24 -11 45 -16 49 -15 9 -10 54 7 61 8 3 13 11 10 19
-3 7 2 18 11 26 14 11 15 10 9 -10 -5 -13 -3 -22 3 -22 6 0 11 7 11 16 0 11 8
14 33 12 29 -3 32 -6 31 -35 -2 -42 3 -42 22 3 13 30 18 34 37 27 12 -4 39 -8
60 -7 31 0 45 7 75 39 l37 40 -35 -33 c-28 -25 -45 -32 -75 -32 -45 0 -71 12
-61 29 4 6 3 11 -2 11 -6 0 -12 -7 -16 -15 -6 -18 -101 -21 -112 -4 -8 13 64
89 86 90 10 0 11 2 3 6 -18 7 -69 -32 -90 -67 -20 -35 -38 -38 -53 -9 -12 21
-1 42 39 76 8 7 15 26 16 44 4 44 22 60 41 35 15 -21 18 -15 14 37 -2 34 3 34
45 0z m-125 -893 c23 -14 -1 -32 -45 -32 -50 0 -55 9 -14 26 41 18 40 18 59 6z
m-60 -63 c0 -7 -9 -31 -19 -53 l-19 -39 -18 37 c-14 31 -15 40 -4 53 15 18 60
20 60 2z m39 -69 c39 -24 57 -44 64 -69 4 -14 -3 -13 -46 6 -53 25 -67 39 -67
68 0 22 5 22 49 -5z m1171 -8 c0 -12 -7 -20 -17 -20 -17 -1 -17 -1 0 -11 29
-17 20 -31 -15 -24 -26 5 -30 4 -18 -5 12 -9 7 -11 -22 -7 -44 7 -93 36 -80
49 15 15 85 37 120 38 25 0 32 -4 32 -20z m-1065 -30 c3 -5 17 -10 31 -10 32
0 80 -25 88 -45 5 -14 -1 -15 -42 -10 -53 8 -86 26 -102 55 -8 16 -8 20 4 20
8 0 18 -4 21 -10z m922 -27 c23 -16 24 -17 7 -24 -48 -19 -155 6 -139 31 10
17 104 11 132 -7z m-670 -9 c20 -3 37 -13 44 -26 11 -20 10 -21 -49 -16 -64 6
-113 25 -120 46 -4 13 17 13 125 -4z m499 0 c56 -27 51 -35 -18 -33 -61 1
-108 19 -108 39 0 16 89 11 126 -6z m-316 -19 c26 -24 18 -30 -33 -26 -42 3
-97 28 -97 44 0 16 110 0 130 -18z m182 -3 l22 -22 -59 0 c-42 0 -70 6 -92 20
-18 11 -33 23 -33 26 0 3 32 4 70 2 56 -3 75 -8 92 -26z"/>
<path d="M930 1455 c0 -5 11 -23 25 -40 13 -16 24 -25 25 -18 0 7 -11 25 -25
40 -13 15 -24 24 -25 18z"/>
<path d="M900 1342 c0 -5 10 -17 21 -28 22 -19 22 -19 10 3 -12 24 -31 39 -31
25z"/>
<path d="M1051 1345 c-1 -5 8 -21 19 -35 11 -14 20 -20 20 -14 0 7 -9 22 -20
35 -10 13 -19 20 -19 14z"/>
<path d="M668 1297 c-7 -39 -63 -137 -78 -137 -5 0 -16 10 -24 22 -11 15 -16
17 -16 8 1 -8 20 -29 44 -47 l44 -32 16 24 c9 13 16 35 16 48 0 13 11 46 25
73 29 57 33 80 8 44 l-18 -25 -5 30 -6 30 -6 -38z"/>
<path d="M1113 1279 c-16 -20 -28 -83 -14 -75 6 4 11 15 11 25 0 9 5 22 11 28
6 6 9 17 7 23 -3 9 -7 9 -15 -1z"/>
<path d="M294 1264 c-18 -14 -18 -15 6 -8 14 3 32 10 40 15 12 7 11 8 -6 9
-11 0 -29 -7 -40 -16z"/>
<path d="M1200 1241 c0 -4 11 -13 25 -19 13 -6 27 -23 31 -37 3 -14 11 -25 18
-25 6 0 23 -14 38 -32 15 -18 28 -28 28 -22 0 6 -16 29 -35 50 -19 21 -35 43
-35 48 -1 13 -70 50 -70 37z"/>
<path d="M866 1210 c15 -28 34 -48 34 -35 0 12 -34 65 -41 65 -4 0 -1 -13 7
-30z"/>
<path d="M393 1210 c-13 -5 -23 -11 -23 -14 0 -5 72 13 79 20 8 7 -34 3 -56
-6z"/>
<path d="M923 1143 c-17 -43 -34 -95 -37 -115 -7 -36 -5 -38 19 -38 22 0 24 2
15 20 -12 23 -3 92 15 117 12 16 15 14 34 -17 25 -42 27 -36 5 16 -9 20 -14
50 -12 66 8 50 -8 30 -39 -49z"/>
<path d="M1072 1178 c-20 -20 -14 -33 19 -45 17 -7 33 -21 36 -32 3 -12 9 -21
14 -21 5 0 9 -12 9 -27 0 -49 18 -10 20 42 2 70 2 71 -20 72 -19 2 -19 0 -6
-19 8 -11 12 -27 9 -34 -7 -18 -23 -8 -23 15 0 10 -10 27 -23 39 -18 17 -26
19 -35 10z"/>
<path d="M495 1135 l-30 -14 35 6 c19 3 42 9 50 14 26 15 -22 10 -55 -6z"/>
<path d="M1207 1134 c7 -3 17 -22 24 -42 6 -20 23 -47 37 -61 l25 -26 -22 36
c-11 20 -21 44 -21 54 0 18 -27 45 -45 44 -5 0 -5 -3 2 -5z"/>
<path d="M1035 1077 c-10 -23 -25 -55 -33 -72 -14 -30 -14 -30 6 -12 13 12 28
16 41 12 23 -7 28 -21 9 -28 -7 -2 6 -10 30 -17 48 -15 48 -15 57 21 6 24 4
25 -23 21 -27 -3 -92 20 -92 34 0 3 8 13 19 22 12 12 16 24 12 39 -5 20 -8 18
-26 -20z"/>
<path d="M1371 1120 c0 -3 -10 -37 -21 -75 -19 -69 -19 -70 0 -45 11 14 20 34
20 46 0 22 26 29 48 11 8 -6 12 -6 12 2 0 6 -11 16 -24 21 -13 5 -26 17 -29
27 -3 10 -5 16 -6 13z"/>
<path d="M827 1082 c3 -12 9 -25 14 -28 14 -8 11 10 -6 32 -13 18 -14 18 -8
-4z"/>
<path d="M850 1016 c0 -22 3 -27 11 -19 8 8 8 16 0 30 -9 16 -10 14 -11 -11z"/>
<path d="M1197 999 c4 -15 8 -17 14 -8 8 14 3 29 -11 29 -4 0 -6 -9 -3 -21z"/>
<path d="M1196 954 c-8 -20 -3 -27 18 -22 12 2 13 6 2 21 -13 16 -14 16 -20 1z"/>
<path d="M957 930 c-14 -11 -33 -20 -42 -20 -14 0 -14 -3 4 -26 23 -29 91 -83
105 -84 5 0 3 7 -4 15 -17 21 -8 28 23 16 31 -12 43 -29 28 -44 -6 -6 -11 -18
-11 -26 0 -9 9 -1 20 17 20 32 55 43 62 20 3 -7 18 1 38 20 18 18 38 32 45 32
15 0 68 40 62 47 -3 2 -29 -11 -58 -29 -57 -35 -123 -43 -164 -21 -17 10 -14
14 34 43 28 18 50 34 48 37 -3 2 -28 -11 -57 -29 -42 -26 -63 -33 -98 -31 -57
2 -75 18 -46 41 12 9 30 22 40 29 11 6 14 12 8 12 -6 1 -23 -8 -37 -19z"/>
<path d="M1365 833 c-34 -23 -42 -33 -25 -28 14 4 37 15 52 26 15 10 32 19 38
19 6 0 8 5 5 10 -9 14 -14 12 -70 -27z"/>
<path d="M840 850 c8 -5 24 -10 35 -10 11 0 27 5 35 10 11 7 1 10 -35 10 -36
0 -46 -3 -35 -10z"/>
<path d="M1215 792 c17 -11 34 -16 39 -11 13 12 5 18 -35 25 l-34 6 30 -20z"/>
<path d="M1277 794 c-3 -3 -3 -12 -1 -19 3 -7 1 -29 -4 -49 -6 -20 -9 -36 -7
-36 1 0 15 16 29 35 22 28 25 38 16 55 -11 20 -22 25 -33 14z"/>
<path d="M970 742 c0 -4 18 -6 40 -4 22 2 40 6 40 8 0 2 -18 4 -40 4 -22 0
-40 -3 -40 -8z"/>
<path d="M1168 712 c-19 -4 -25 -32 -8 -32 6 0 22 -12 35 -26 14 -15 29 -23
36 -19 8 6 7 10 -5 17 -9 5 -22 22 -29 37 -8 18 -18 26 -29 23z"/>
<path d="M1098 643 c12 -2 32 -2 45 0 12 2 2 4 -23 4 -25 0 -35 -2 -22 -4z"/>
<path d="M1340 621 c-6 -12 -7 -21 -1 -21 10 0 24 30 17 37 -2 3 -9 -5 -16
-16z"/>
<path d="M1240 616 c0 -8 5 -18 10 -21 6 -3 10 1 10 9 0 8 -4 18 -10 21 -5 3
-10 -1 -10 -9z"/>
<path d="M1210 548 c0 -10 18 -9 45 2 16 6 14 8 -12 7 -18 0 -33 -4 -33 -9z"/>
<path d="M343 1035 c-36 -32 -17 -32 22 0 17 14 25 25 18 25 -7 0 -25 -11 -40
-25z"/>
<path d="M440 942 c0 -5 20 -13 45 -16 25 -4 52 -14 60 -22 13 -14 16 -13 24
8 9 25 -6 40 -19 18 -5 -7 -9 -8 -11 -2 -5 14 -99 27 -99 14z"/>
<path d="M653 869 c1 -33 -31 -129 -44 -129 -4 0 -14 15 -23 33 -20 41 -21 25
0 -29 15 -39 15 -43 -5 -83 -25 -48 -35 -51 -55 -13 -22 39 -19 18 3 -26 14
-27 16 -43 9 -61 -9 -24 -8 -24 12 -6 11 10 20 27 20 39 0 11 11 43 24 71 74
153 86 193 67 224 -7 11 -9 5 -8 -20z"/>
<path d="M231 866 c-13 -15 -4 -106 11 -106 4 0 22 -15 39 -32 l31 -33 -31 40
c-24 32 -31 52 -33 93 -1 29 -3 52 -4 52 -1 0 -7 -6 -13 -14z"/>
<path d="M538 874 c-5 -4 -8 -16 -8 -28 0 -14 3 -17 11 -9 6 6 9 19 7 28 -1 9
-6 13 -10 9z"/>
<path d="M346 801 c-3 -5 -7 -38 -8 -73 -1 -62 -1 -64 42 -106 24 -23 47 -42
52 -42 4 0 8 -7 8 -16 0 -8 5 -12 10 -9 6 3 10 15 10 26 0 11 -4 18 -8 15 -9
-6 -58 42 -85 84 -19 27 -23 85 -7 95 13 8 13 35 1 35 -6 0 -12 -4 -15 -9z"/>
<path d="M700 800 c0 -8 5 -22 10 -30 9 -13 10 -13 10 0 0 8 -5 22 -10 30 -9
13 -10 13 -10 0z"/>
<path d="M492 783 c7 -9 7 -13 -1 -13 -7 0 -9 -4 -6 -10 3 -5 2 -10 -3 -10 -6
0 -8 -9 -5 -20 8 -29 19 -25 32 11 15 45 14 55 -8 55 -15 0 -17 -3 -9 -13z"/>
<path d="M218 677 c18 -48 20 -52 27 -46 9 9 -15 77 -29 82 -11 5 -11 -2 2
-36z"/>
<path d="M706 644 c-17 -45 -22 -72 -16 -83 7 -13 10 -10 15 14 4 17 14 52 22
78 23 73 9 67 -21 -9z"/>
<path d="M468 692 c-22 -4 -22 -9 -3 -28 13 -14 16 -14 21 0 8 22 2 32 -18 28z"/>
<path d="M626 655 c10 -41 23 -75 28 -75 6 0 -20 90 -29 98 -4 4 -3 -7 1 -23z"/>
<path d="M650 518 c-8 -24 -19 -55 -26 -69 -11 -22 -11 -30 1 -45 13 -18 14
-17 15 12 0 17 7 54 16 83 8 29 14 55 11 57 -2 2 -10 -15 -17 -38z"/>
<path d="M562 540 c0 -8 6 -31 13 -50 9 -23 14 -28 14 -15 0 11 -6 34 -14 50
-7 17 -13 23 -13 15z"/>
<path d="M509 516 c-12 -8 -16 -24 -14 -57 4 -51 24 -134 31 -126 2 2 -2 28
-9 58 -12 46 -12 60 -1 93 16 45 15 49 -7 32z"/>
<path d="M820 496 c-5 -15 -10 -37 -9 -49 0 -13 6 -4 14 23 16 49 12 69 -5 26z"/>
<path d="M415 503 c-33 -8 -42 -23 -13 -23 14 0 28 7 32 15 3 8 4 14 3 14 -1
-1 -11 -3 -22 -6z"/>
<path d="M1029 489 c-8 -15 -8 -19 0 -15 6 4 11 2 11 -3 0 -6 -4 -12 -10 -12
-5 -1 -14 -2 -18 -3 -12 -2 -116 -86 -106 -86 11 0 138 86 151 102 8 9 7 17
-3 26 -11 10 -15 8 -25 -9z"/>
<path d="M355 475 c20 -77 23 -111 12 -125 -6 -8 1 -4 16 10 15 14 29 41 32
60 l6 35 -17 -35 -17 -35 -9 50 c-5 28 -14 55 -20 60 -7 7 -8 1 -3 -20z"/>
<path d="M880 450 c-14 -11 -20 -20 -15 -19 13 0 50 28 44 33 -2 3 -15 -4 -29
-14z"/>
<path d="M758 377 c-33 -29 -57 -87 -37 -87 5 0 9 9 9 20 0 19 62 90 80 90 5
0 13 -7 18 -16 8 -14 10 -14 14 3 9 33 -42 27 -84 -10z"/>
<path d="M1016 374 c-4 -20 -5 -38 -2 -41 2 -3 8 11 12 31 3 21 4 39 1 42 -2
3 -8 -11 -11 -32z"/>
<path d="M821 338 c-17 -27 -9 -33 13 -9 10 10 13 21 9 24 -5 3 -15 -3 -22
-15z"/>
</g>
</svg>
